
        <svg width="3200.752318519106" height="1355.0781500039682" xmlns="http://www.w3.org/2000/svg" xmlns:xlink="http://www.w3.org/1999/xlink" version="1.1">
            <rect fill="#2eaef1" width="3200.752318519106" height="1355.0781500039682"/>
            <g transform="scale(10.03761592595532) translate(10, 10)">
                <defs id="SvgjsDefs1002"/><g id="main_text" rel="mainfill" name="main_text" xmlns:name="mainText_mainfill" fill="#fff" transform="translate(129.29974858954074, 12.497501373291009)"><path d="M15.087 32.477000000000004 c4.982 0 10.058 4.042 10.058 12.408 c0 8.084 -5.311 12.126 -10.105 12.126 c-3.948 0 -4.841 -2.632 -7.097 -2.632 c-1.175 0 -2.068 0.705 -2.397 2.021 l-0.893 0 c-0.752 0 -1.081 -0.423 -1.081 -1.128 l0 -25.474 c0 -1.645 -1.034 -2.068 -2.867 -1.786 l0 -1.504 c4.136 -0.752 5.969 -2.585 7.097 -2.585 c0.752 0 1.081 0.423 1.081 1.363 l0 10.011 c1.175 -1.363 3.196 -2.82 6.204 -2.82 z M14.523 55.46 c3.525 0 4.888 -3.337 4.888 -9.259 c0 -6.956 -1.927 -12.032 -5.593 -12.032 c-2.209 0 -3.948 1.598 -4.935 2.961 l0 13.113 c0.094 2.35 2.82 5.217 5.64 5.217 z M47.141 51.23 c0.47 0 0.658 0.47 0.329 1.081 c-1.269 2.632 -3.807 4.559 -7.896 4.559 c-6.298 0 -11.374 -4.277 -11.374 -12.267 c0 -7.802 5.264 -12.126 10.81 -12.126 c5.405 0 9.682 3.76 9.682 9.682 c0 1.786 -0.705 2.961 -2.538 2.961 l-12.314 0 c0.047 5.922 2.162 10.152 6.439 10.152 c2.397 0 4.089 -1.034 5.311 -3.337 c0.235 -0.423 0.376 -0.705 0.893 -0.705 l0.658 0 z M43.522 43.333999999999996 c0 -5.781 -1.269 -9.259 -4.512 -9.259 c-3.337 0 -5.123 3.478 -5.17 9.259 l9.682 0 z M73.555 53.157 c0 1.175 1.269 1.551 2.867 1.739 l0 1.504 c-3.666 -0.141 -7.332 -0.141 -11.045 0 l0 -1.504 c1.598 -0.141 2.867 -0.564 2.867 -1.739 l0 -12.502 c0 -3.525 -0.517 -5.875 -2.961 -5.875 c-3.243 0 -5.781 3.713 -6.298 4.7 l0 13.677 c0 1.175 1.269 1.598 2.867 1.739 l0 1.504 c-3.666 -0.141 -7.332 -0.141 -10.998 0 l0 -1.504 c1.551 -0.188 2.82 -0.564 2.82 -1.739 l0 -14.993 c0 -1.645 -1.034 -2.021 -2.867 -1.786 l0 -1.504 c4.136 -0.752 5.969 -2.585 7.05 -2.585 c0.799 0 1.222 0.564 1.128 1.457 l-0.423 3.901 c0.987 -1.504 3.807 -5.217 8.178 -5.217 c3.807 0 6.815 1.598 6.815 8.131 l0 12.596 z M83.80100000000002 29.139999999999997 c-1.551 0 -2.867 -1.269 -2.867 -2.82 s1.316 -2.82 2.867 -2.82 c1.504 0 2.82 1.269 2.82 2.82 c0 1.504 -1.316 2.82 -2.82 2.82 z M85.822 32.336 c0.752 0 1.269 0.376 1.269 1.222 c0 1.551 -0.282 3.29 -0.282 6.204 l0 14.476 c0 9.071 -4.042 12.267 -10.904 12.267 l-0.188 -1.504 c3.76 -0.329 5.781 -2.538 5.781 -8.319 l0 -18.706 c0 -1.645 -1.081 -2.068 -2.867 -1.974 l0 -1.457 c4.324 -0.658 6.063 -2.209 7.191 -2.209 z M96.02100000000002 29.139999999999997 c-1.551 0 -2.867 -1.269 -2.867 -2.82 s1.316 -2.82 2.867 -2.82 c1.504 0 2.82 1.269 2.82 2.82 s-1.316 2.82 -2.82 2.82 z M99.02900000000001 53.157 c0 1.175 1.269 1.551 2.867 1.739 l0 1.504 c-3.666 -0.141 -7.332 -0.141 -10.998 0 l0 -1.504 c1.551 -0.188 2.82 -0.564 2.82 -1.739 l0 -15.181 c0 -1.645 -1.034 -2.068 -2.867 -1.974 l0 -1.457 c4.324 -0.658 6.063 -2.209 7.191 -2.209 c0.752 0 1.269 0.376 1.269 1.222 c0 1.551 -0.282 3.29 -0.282 6.204 l0 13.395 z M123.18700000000001 51.23 c0.47 0 0.658 0.47 0.329 1.081 c-1.269 2.632 -3.807 4.559 -7.896 4.559 c-6.298 0 -11.374 -4.277 -11.374 -12.267 c0 -7.802 5.264 -12.126 10.81 -12.126 c5.405 0 9.682 3.76 9.682 9.682 c0 1.786 -0.705 2.961 -2.538 2.961 l-12.314 0 c0.047 5.922 2.162 10.152 6.439 10.152 c2.397 0 4.089 -1.034 5.311 -3.337 c0.235 -0.423 0.376 -0.705 0.893 -0.705 l0.658 0 z M119.56800000000001 43.333999999999996 c0 -5.781 -1.269 -9.259 -4.512 -9.259 c-3.337 0 -5.123 3.478 -5.17 9.259 l9.682 0 z  M155.758 51.747 c1.833 2.397 3.854 3.713 5.499 3.854 l-1.457 1.504 c-2.914 0 -6.063 -0.611 -8.742 -4.042 l-5.687 -7.238 l0 7.332 c0 1.175 1.269 1.598 2.867 1.739 l0 1.504 c-3.666 -0.141 -7.332 -0.141 -10.998 0 l0 -1.504 c1.551 -0.188 2.82 -0.564 2.82 -1.739 l0 -23.359 c0 -1.645 -1.034 -2.068 -2.867 -1.786 l0 -1.504 c4.136 -0.752 5.969 -2.585 7.097 -2.585 c0.752 0 1.081 0.423 1.081 1.363 l0 18.142 c3.055 -2.35 5.217 -4.653 7.097 -7.238 c0.564 -0.846 0.047 -1.598 -1.739 -1.786 l0 -1.551 c3.008 0.141 6.063 0.141 9.071 0 l0 1.551 c-1.739 0.188 -2.632 0.564 -4.183 1.974 l-6.862 6.251 z M166.709 56.87 c-1.551 0 -2.867 -1.316 -2.867 -2.914 c0 -1.551 1.316 -2.867 2.867 -2.867 s2.867 1.316 2.867 2.867 c0 1.598 -1.316 2.914 -2.867 2.914 z"/></g><g id="SvgjsG1009" rel="mainfill" name="symbol" xmlns:name="symbol_mainfill" fill="#fff" transform="translate(-1.6673871494145802, -1.66975388559087) scale(1.183383323735647)"><path xmlns="http://www.w3.org/2000/svg" fill="" d="M49.998,1.411C23.206,1.411,1.409,23.208,1.409,50c0,26.792,21.797,48.59,48.589,48.59  c26.795,0,48.594-21.798,48.594-48.59C98.592,23.208,76.793,1.411,49.998,1.411z M93.621,66.773  C91.916,60.212,88.759,54.45,84.436,50c4.324-4.454,7.48-10.217,9.184-16.779c2.012,5.212,3.127,10.866,3.127,16.779  C96.746,55.911,95.632,61.563,93.621,66.773z M50,81.801c-3.412-3.709-5.708-8.108-6.523-12.571c2.506-0.741,4.732-1.97,6.523-3.593  c1.789,1.622,4.015,2.85,6.521,3.591C55.707,73.69,53.411,78.091,50,81.801z M50,18.2c3.412,3.708,5.708,8.108,6.524,12.57  c-2.507,0.741-4.733,1.97-6.524,3.593c-1.791-1.622-4.016-2.85-6.522-3.591C44.293,26.309,46.589,21.909,50,18.2z M53.85,57.219  l-1.263-0.961l-0.21,1.573C52.137,59.63,51.3,61.429,50,62.984c-1.3-1.555-2.137-3.354-2.377-5.154l-0.21-1.574l-1.263,0.963  c-1.444,1.1-3.309,1.78-5.33,1.961c0.182-2.021,0.862-3.886,1.962-5.329l0.962-1.264l-1.573-0.21c-1.8-0.241-3.6-1.078-5.155-2.377  c1.556-1.3,3.355-2.136,5.155-2.377l1.574-0.21l-0.962-1.263c-1.1-1.444-1.78-3.31-1.962-5.33c2.021,0.182,3.886,0.862,5.33,1.962  l1.263,0.962l0.21-1.574c0.24-1.799,1.077-3.598,2.376-5.154c1.3,1.555,2.137,3.354,2.378,5.154l0.21,1.573l1.263-0.962  c1.444-1.1,3.31-1.78,5.329-1.962c-0.182,2.02-0.861,3.886-1.961,5.331l-0.961,1.263l1.573,0.21  c1.799,0.241,3.597,1.077,5.152,2.376c-1.555,1.3-3.354,2.137-5.153,2.378l-1.574,0.21l0.963,1.264  c1.1,1.443,1.779,3.309,1.961,5.328C57.159,58.998,55.295,58.318,53.85,57.219z M59.213,61.037  c-0.119,2.181-0.786,4.396-1.952,6.483c-2.275-0.645-4.353-1.76-5.97-3.201c1.257-1.462,2.16-3.13,2.63-4.849  C55.471,60.352,57.29,60.892,59.213,61.037z M38.963,40.787c0.146,1.922,0.686,3.742,1.567,5.291  c-1.72,0.471-3.388,1.374-4.849,2.631c-1.442-1.618-2.558-3.694-3.202-5.967C34.562,41.577,36.781,40.909,38.963,40.787z M34.363,50  c-1.622,1.79-2.85,4.015-3.591,6.521C26.309,55.707,21.908,53.411,18.2,50c3.708-3.412,8.108-5.708,12.57-6.524  C31.511,45.983,32.74,48.208,34.363,50z M35.681,51.291c1.461,1.256,3.129,2.159,4.849,2.63c-0.881,1.55-1.421,3.369-1.567,5.292  c-2.182-0.121-4.4-0.789-6.482-1.953C33.124,54.984,34.239,52.908,35.681,51.291z M42.742,67.521  c-1.167-2.086-1.834-4.303-1.955-6.484c1.923-0.146,3.742-0.686,5.291-1.566c0.471,1.72,1.375,3.388,2.632,4.85  C47.083,65.778,45.043,66.873,42.742,67.521z M40.787,38.962c0.121-2.181,0.787-4.397,1.953-6.483  c2.274,0.644,4.352,1.759,5.969,3.202c-1.256,1.461-2.16,3.129-2.63,4.849C44.529,39.648,42.71,39.108,40.787,38.962z   M64.318,48.709c-1.461-1.256-3.129-2.16-4.848-2.63c0.881-1.55,1.421-3.369,1.566-5.292c2.183,0.121,4.4,0.788,6.483,1.952  C66.876,45.014,65.761,47.091,64.318,48.709z M57.259,32.479c1.166,2.084,1.833,4.301,1.954,6.484  c-1.923,0.146-3.742,0.686-5.291,1.567c-0.471-1.72-1.374-3.388-2.631-4.849C52.908,34.239,54.984,33.123,57.259,32.479z   M61.037,59.213c-0.146-1.923-0.686-3.742-1.566-5.291c1.719-0.471,3.387-1.374,4.849-2.631c1.442,1.617,2.558,3.694,3.201,5.968  C65.438,58.423,63.22,59.091,61.037,59.213z M65.637,50c1.622-1.791,2.85-4.016,3.591-6.522c4.464,0.815,8.864,3.111,12.573,6.522  c-3.708,3.411-8.108,5.708-12.571,6.524C68.488,54.018,67.26,51.791,65.637,50z M83.147,48.709c-3.873-3.589-8.488-6.025-13.19-6.97  c2.652-3.997,4.191-8.987,4.395-14.265c5.915,0.1,11.95,1.88,17.529,5.17C90.284,38.854,87.211,44.504,83.147,48.709z   M68.218,41.017c-2.296-1.246-4.743-1.949-7.161-2.07c-0.121-2.419-0.826-4.865-2.074-7.163c3.733-2.57,8.47-4.056,13.503-4.27  C72.273,32.546,70.788,37.282,68.218,41.017z M58.264,30.043c-0.945-4.703-3.382-9.319-6.973-13.191  c4.202-4.063,9.851-7.137,16.059-8.736c3.299,5.588,5.078,11.618,5.176,17.532C67.248,25.853,62.259,27.392,58.264,30.043z   M41.739,30.043c-3.997-2.652-8.987-4.192-14.266-4.395c0.098-5.914,1.875-11.942,5.171-17.53c6.21,1.598,11.86,4.671,16.064,8.734  C45.119,20.726,42.683,25.34,41.739,30.043z M41.018,31.782c-1.249,2.3-1.955,4.746-2.074,7.165  c-2.417,0.122-4.863,0.825-7.159,2.071c-2.571-3.735-4.057-8.471-4.271-13.504C32.547,27.727,37.283,29.211,41.018,31.782z   M25.649,27.474c0.204,5.278,1.743,10.266,4.395,14.263c-4.704,0.945-9.319,3.381-13.192,6.972  c-4.063-4.204-7.137-9.852-8.736-16.06C13.696,29.357,19.733,27.575,25.649,27.474z M16.853,51.291  c3.873,3.589,8.487,6.025,13.19,6.97c-2.652,3.997-4.191,8.986-4.394,14.265c-5.916-0.1-11.951-1.88-17.53-5.17  C9.716,61.146,12.789,55.496,16.853,51.291z M31.782,58.981c2.296,1.247,4.744,1.951,7.162,2.071  c0.12,2.418,0.826,4.863,2.074,7.162c-3.735,2.571-8.471,4.057-13.503,4.271C27.728,67.453,29.212,62.717,31.782,58.981z   M41.737,69.955c0.944,4.704,3.381,9.319,6.972,13.192c-4.203,4.062-9.852,7.137-16.06,8.736  c-3.298-5.589-5.077-11.619-5.175-17.533C32.751,74.146,37.741,72.607,41.737,69.955z M58.261,69.957  c3.996,2.651,8.985,4.19,14.265,4.394c-0.097,5.912-1.874,11.941-5.17,17.53c-6.21-1.597-11.859-4.67-16.064-8.733  C54.881,79.274,57.316,74.659,58.261,69.957z M58.982,68.218c1.249-2.301,1.955-4.747,2.074-7.165  c2.417-0.121,4.863-0.824,7.158-2.07c2.571,3.733,4.057,8.47,4.271,13.503C67.451,72.272,62.716,70.788,58.982,68.218z   M74.351,72.525c-0.204-5.278-1.743-10.267-4.395-14.262c4.704-0.946,9.319-3.383,13.192-6.973c4.062,4.202,7.136,9.851,8.735,16.06  C86.303,70.644,80.267,72.426,74.351,72.525z M92.696,31.005c-5.831-3.415-12.144-5.262-18.348-5.361  c-0.098-6.201-1.937-12.502-5.358-18.341C79.518,12.003,87.995,20.479,92.696,31.005z M66.771,6.379  C60.211,8.084,54.45,11.241,50,15.564c-4.453-4.323-10.215-7.479-16.777-9.183c5.211-2.011,10.864-3.125,16.775-3.125  C55.908,3.255,61.561,4.369,66.771,6.379z M31.004,7.304c-3.419,5.838-5.256,12.14-5.354,18.34  c-6.205,0.099-12.517,1.948-18.35,5.365C12.001,20.483,20.478,12.005,31.004,7.304z M6.378,33.226  C8.083,39.786,11.24,45.548,15.564,50c-4.323,4.453-7.48,10.217-9.184,16.779C4.368,61.567,3.253,55.913,3.253,50  C3.253,44.089,4.368,38.437,6.378,33.226z M7.303,68.995c5.832,3.415,12.144,5.262,18.349,5.36c0.098,6.2,1.937,12.503,5.358,18.343  C20.482,87.998,12.004,79.521,7.303,68.995z M33.228,93.621c6.56-1.706,12.321-4.863,16.772-9.186  c4.453,4.323,10.215,7.479,16.776,9.183c-5.212,2.012-10.866,3.126-16.778,3.126C44.089,96.744,38.438,95.631,33.228,93.621z   M68.996,92.694c3.419-5.84,5.257-12.141,5.354-18.339c6.203-0.099,12.516-1.947,18.349-5.364  C87.998,79.517,79.521,87.993,68.996,92.694z"/></g>
            </g>
        </svg>
    